<?xml version="1.0" encoding="UTF-8" standalone="no"?>
<!-- Created with Inkscape (http://www.inkscape.org/) -->
<svg xmlns:svg="http://www.w3.org/2000/svg" xmlns="http://www.w3.org/2000/svg" version="1.0" width="655" height="156.70752" id="svg2">
  <defs id="defs4"/>
  <g transform="translate(-27.5,-58.326158)" id="layer1">
    <path d="M 30,142.36218 L 77.142857,142.36218 C 95.615687,103.78248 106.53551,62.202419 119.77247,60.900022 C 131.68407,59.728029 136.84326,71.981803 162.14286,135.21933 C 187.44246,198.45686 195.29081,208.63516 204.93295,212.27891 C 218.53064,217.41746 237.5047,143.12188 247.85714,143.07647 L 410.71429,142.36218 C 436.3139,147.16211 442.74847,60.873532 466.42857,61.647894 C 481.42438,62.138272 492.72701,99.927246 511.42857,141.64789 C 511.42857,141.64789 539.74768,206.18561 552.85714,206.64789 C 579.43157,207.55982 576.78818,144.73026 600.71429,142.36218 C 621.96988,140.25841 680,142.36218 680,142.36218" id="path2455" style="fill:none;fill-rule:evenodd;stroke:#000000;stroke-width:5;stroke-linecap:butt;stroke-linejoin:miter;stroke-miterlimit:4;stroke-dasharray:none;stroke-opacity:1"/>
  </g>
</svg>